<?xml version="1.0" encoding="iso-8859-1"?>
<!-- Generator: Adobe Illustrator 19.0.0, SVG Export Plug-In . SVG Version: 6.00 Build 0)  -->
<svg version="1.1" id="Layer_1" xmlns="http://www.w3.org/2000/svg" xmlns:xlink="http://www.w3.org/1999/xlink" x="0px" y="0px"
	 viewBox="0 0 295.24 295.24" style="enable-background:new 0 0 295.24 295.24;" xml:space="preserve">
<g>
	<g>
		<g>
			<circle cx="123.81" cy="19.049" r="4.762"/>
			<circle cx="161.905" cy="28.572" r="4.762"/>
			<circle cx="142.857" cy="14.287" r="4.762"/>
			<circle cx="176.19" cy="14.287" r="4.762"/>
			<circle cx="138.095" cy="33.334" r="4.762"/>
			<path d="M264.529,98.815l-3.186,3.538l2.948-3.752c-12.638-11.381-28.976-17.648-45.99-17.648c-11.448,0-22.557,2.848-32.586,8.3
				V66.667h4.762c7.876,0,14.286-6.41,14.286-14.286c0-7.876-6.41-14.286-14.286-14.286h-3.424l9.523-38.095H98.662l9.524,38.095
				h-3.424c-7.876,0-14.286,6.41-14.286,14.286c0,7.876,6.41,14.286,14.286,14.286h4.762v22.586
				c-10.024-5.452-21.133-8.3-32.586-8.3c-17.014,0-33.352,6.267-46.229,17.862C11.195,116.376,0,141.511,0,167.762
				c0,33.343,18.019,64.271,47.029,80.71l35.91,20.343c-4.048,2.529-6.748,7.029-6.748,12.138c0,7.876,6.41,14.286,14.286,14.286
				h114.286c7.876,0,14.286-6.41,14.286-14.286c0-5.11-2.7-9.61-6.748-12.133l35.91-20.343
				c29.01-16.438,47.029-47.371,47.029-80.714C295.238,141.511,284.043,116.376,264.529,98.815z M142.857,9.524h33.333h8.186
				l-7.143,28.571h-39.138h-20.09l-7.143-28.571H142.857z M104.762,57.144c-2.629,0-4.762-2.133-4.762-4.762
				c0-2.629,2.133-4.762,4.762-4.762h5.805h74.11h5.8c2.629,0,4.762,2.133,4.762,4.762c0,2.629-2.133,4.762-4.762,4.762h-9.524
				h-66.667H104.762z M243.514,240.186l-47.824,27.095c-1.881,1.067-2.81,3.267-2.257,5.357c0.548,2.095,2.443,3.552,4.605,3.552
				h6.724c2.629,0,4.762,2.133,4.762,4.762c0,2.629-2.133,4.762-4.762,4.762H90.476c-2.629,0-4.762-2.133-4.762-4.762
				c0-2.629,2.133-4.762,4.762-4.762h4.762H97.2h78.99v-9.524H98.457l-46.733-26.481c-26.029-14.748-42.2-42.5-42.2-72.424
				c0-23.557,10.043-46.114,27.795-62.086c10.89-9.8,24.962-15.2,39.619-15.2c12.4,0,24.348,3.886,34.562,11.248
				c1.457,1.048,3.371,1.19,4.957,0.371c1.59-0.81,2.59-2.448,2.59-4.233V66.667h57.143v31.195c0,1.786,1,3.424,2.59,4.238
				c1.586,0.819,3.5,0.676,4.957-0.371c10.21-7.367,22.162-11.252,34.562-11.252c14.657,0,28.729,5.4,39.614,15.195l0.238,0.214
				c0,0.005,0.005,0.005,0.005,0.005c17.514,15.762,27.557,38.314,27.557,61.871C285.714,197.686,269.543,225.438,243.514,240.186z"
				/>
			<rect x="23.81" y="142.857" width="190.476" height="9.524"/>
			<rect x="228.571" y="142.857" width="42.857" height="9.524"/>
		</g>
	</g>
</g>
<g>
</g>
<g>
</g>
<g>
</g>
<g>
</g>
<g>
</g>
<g>
</g>
<g>
</g>
<g>
</g>
<g>
</g>
<g>
</g>
<g>
</g>
<g>
</g>
<g>
</g>
<g>
</g>
<g>
</g>
</svg>
